Patient4_TMGait_0pt3_03_right_11_EMG.mot
version=1
nRows=30
nColumns=33
inDegrees=no
endheader
time	1LAddLong	2LGlutMax	3LGlutMed	4LIliopsoas	5LSemiMemb	6LBicFemLong	7LRecFem	8LVastMed	9LVastLat	10LGasMed	11LTibAnt	12lTibPost	13LPeroneusLong	14LSol	15LExtDigLong	16LFlexDigLong	17RAddLong	18RGlutMax	19RGlutMed	20RIliopsoas	21RSemiMemb	22RBicFemLong	23RRecFem	24RVastMed	25RVastLat	26RGasMed	27RTibAnt	28RTibPost	29RPeroneusLong	30RSol	31RExtDigLong	32RFlexDigLong
20.81	-0.03479	0.062561	0.08194	0.022583	0.00351	0.0737	0.13687	-0.000916	0.000305	-0.21286	-0.009918	0.023499	0.058899	0.033875	0.003815	-0.00412	-0.036163	-0.023346	0.61417	-0.003815	-0.026245	-0.009918	0.15595	0.082092	0.063782	-0.012817	-0.14084	-0.002136	-0.035553	-0.055847	0.003052	-0.011749
20.811	-0.001984	0.06958	0.006866	0.029907	0.006256	0.088806	0.085297	0.004578	-0.045776	-0.21255	-0.02594	0.030975	-0.18539	0.12741	0.06073	-0.005035	-0.015106	-0.048676	0.58044	-0.013123	0.011749	0.020447	0.15076	0.13062	0.064392	-0.010681	-0.43701	-0.004272	0.015411	0.037384	0.010986	-0.008545
20.812	0.005035	0.10666	-0.044708	0.019684	0.002899	0.096893	0.089722	0.009613	0.011597	-0.15289	-0.011292	0.020294	-0.23727	0.25787	0.043182	0.009918	0.018463	-0.02243	0.7692	-0.015106	0.039673	0.016785	0.1828	0.14877	0.055847	-0.003052	-0.18036	-0.003967	0.242	-0.04364	0.001221	-0.007935
20.813	0.020294	0.10468	-0.026093	0.003052	0.009766	0.081329	0.077972	0.001373	0.079346	-0.055237	0.027313	0.007782	0.006409	-0.10544	-0.078583	-0.016632	-0.005951	-0.057831	0.52582	0.078735	0.013275	0.003204	0.21332	0.099945	0.035706	0.00061	0.034027	-0.006256	0.51346	-0.082397	0.00351	-0.013733
20.814	0.032959	0.1207	0.12314	-0.006714	0.017242	0.044098	0.005951	-0.003052	0.10635	-0.049896	0.03479	-0.001831	-0.13229	0.021057	-0.01358	0.003815	-0.012054	-0.049286	0.32272	0.087433	0.006104	-0.029449	0.19836	0.12207	0.010223	0.002136	0.049133	-0.007782	0.14328	-0.07431	0.00061	-0.003357
20.815	0.028534	0.079803	0.075989	-0.006409	0.019226	0.020294	0.055695	-0.003815	0.057373	-0.028381	0.001221	-0.001373	0.03067	0.28748	-0.007019	0.010223	-0.001526	-0.066071	0.40817	0.10468	0.007477	-0.057526	0.24689	0.062408	-0.006256	0.007629	-0.003357	-0.005188	0.039063	-0.055237	0.000305	-0.00473
20.816	0.019836	0.10239	0.17242	-0.013428	0.014954	-0.020142	0.056	0.005646	-0.1033	-0.000458	-0.007629	0.007935	0.23071	0.16785	0.010681	-0.011444	0.10132	-0.091095	0.57663	0.050354	-0.021362	-0.088501	0.27268	0.050812	-0.005646	-0.000763	0.13092	-0.003662	-0.092163	-0.014801	0.000458	-0.01358
20.817	0.014954	0.090179	0.16235	-0.002136	0.012207	-0.11643	0.007629	0.008545	-0.15854	0.008087	0.011139	0.006561	0.35355	0.11292	0.031281	-0.00351	0.11139	-0.12497	0.6192	0.089874	-0.026245	-0.11856	0.26016	-0.037384	-0.023804	-0.016174	0.18982	-0.013275	-0.103	0.077057	-0.001373	-0.008545
20.818	0.016785	0.070801	0.090637	-0.024872	-0.0177	0.001831	0.005493	0.008392	-0.06073	-0.012817	0.01297	0.001984	-0.3212	0.23529	-0.006256	-0.006866	0.12924	-0.16724	0.29892	0.031128	-0.055237	-0.1384	0.26108	-0.072479	-0.035553	-0.019379	0.16663	-0.007324	-0.046539	0.22049	0.00061	-0.013428
20.819	0.023041	0.094604	0.02594	0.005493	0.006714	0.064087	0.017395	-0.003052	0.019226	-0.01358	0.016632	0.014954	-0.0383	0.27451	-0.040436	0.003357	0.10849	-0.12497	0.11139	-0.035858	-0.05661	-0.12863	0.2504	-0.033264	-0.031586	-0.015564	-0.06012	-0.003357	0.013733	0.19943	-0.002747	-0.001984
20.82	0.030518	0.095673	0	0.001221	0.003967	0.088806	0.033264	-0.016327	0.011139	-0.015106	-0.001831	-0.003357	0.6427	0.24628	-0.057068	-0.002747	0.042114	-0.14267	-0.1265	0.042114	-0.053864	-0.13473	0.29266	-0.08316	-0.029907	-0.009613	-0.15961	-0.005188	0.07309	0.1265	-0.002899	-0.010986
20.821	0.022736	0.098267	-0.12344	0.023499	0.000916	0.080719	0.039063	-0.023193	0.004272	-0.044708	0.011902	0.016022	0.4512	0.24979	0.013275	0.00061	0.05188	-0.16327	0.003967	0.12085	-0.058289	-0.12161	0.23224	-0.075989	-0.013885	-0.001526	0.37506	-0.006561	0.12146	0.15076	0.003204	-0.007172
20.822	0.005341	0.12589	-0.17197	0.010071	0.001221	0.1503	0.009155	-0.012054	0.00946	0.009308	0.016022	0.009308	-0.19577	0.18204	-0.074615	-0.005188	0.019073	-0.22614	-0.01709	0.15808	-0.046082	-0.071411	0.18539	-0.074768	0.000916	-0.005798	0.29694	-0.005951	0.11032	0.11185	-0.002289	-0.001221
20.823	0.001068	0.14694	-0.13016	0.018463	-0.006561	0.19547	0.00824	-0.001526	0.068665	-0.046844	-0.016327	0.005035	-0.32516	0.37369	0.1326	0.015869	-0.020447	-0.25971	-0.11612	0.2182	-0.034485	-0.048523	0.17364	-0.037537	0.019989	-0.008545	-0.18005	-0.001984	0.12283	0.029449	0.001984	-0.002594
20.824	-0.00412	0.12817	-0.006561	0.026855	-0.01236	0.1973	0.034637	-0.002289	0.085602	-0.055847	-0.031281	0.00885	0.23224	0.25818	0.11612	0.018463	-0.038147	-0.20783	0.12283	0.080872	-0.029907	-0.023651	0.17777	-0.035553	0.001984	-0.005341	-0.35675	0.000763	0.080261	-0.031738	0.008087	-0.004425
20.825	-0.007477	0.15549	0.077972	0.02121	-0.007629	0.20599	0.021515	-0.001526	0.078888	0.013123	-0.000305	0.003357	0.20142	0.022278	0.029297	0.013123	-0.096436	-0.21774	0.059662	-0.076752	-0.018768	0	0.13458	0.039368	0.017395	-0.000763	-0.67368	0.001526	0.04364	-0.053253	0.006104	-0.003967
20.826	-0.006256	0.082855	0.16724	-0.004578	-0.007629	0.15533	0.018158	0.008545	0.056458	0.13412	0.016785	0.009155	0.20294	-0.21668	0.056152	-0.00946	-0.16098	-0.24918	-0.037537	-0.13687	-0.00824	0.004425	0.10025	0.068817	0.027313	-0.003357	-0.65567	0.003662	0.058594	-0.029755	0.001526	-0.005493
20.827	-0.019836	0.10498	0.1442	0.009308	-0.00412	0.11307	0.10239	0.001373	0.052795	0.58472	0.016174	0.002441	-0.33096	-0.34943	0.074463	0.001526	-0.16495	-0.24017	-0.062408	-0.20309	0.00061	0.019073	0.098419	0.11368	0.032043	0.000916	-0.30487	0.002899	0.032043	-0.10025	0.001831	-0.00351
20.828	-0.009003	0.12207	0.000916	0.005951	-0.00946	-0.019836	0.093079	0.006714	0.018005	0.48401	0.009613	-0.001526	-0.16449	-0.15137	0.051575	-0.0383	-0.15915	-0.24414	0.19989	-0.35751	-0.013428	0.002136	0.11551	0.11368	0.039063	-0.00061	-0.004425	0.008392	-0.051727	-0.14008	0.000916	-0.005646
20.829	0.006561	0.14114	0.024567	-0.000305	-0.010681	-0.30777	0.045319	0.006866	-0.036011	-0.037689	-0.00824	0.004578	-0.32074	0.026855	-0.009155	0.019531	-0.11978	-0.23148	0.25085	-0.32394	-0.013275	0.002747	0.12268	0.053253	0.022888	-0.001526	0.19287	0.002441	-0.11246	-0.082245	0.001526	-0.014343
20.83	0.016632	0.15533	-0.037231	0.001831	0.025635	-0.18997	0.052185	-0.002289	-0.17181	0.21805	-0.009003	0.002594	-0.35355	0.004578	-0.023193	0.13382	-0.08606	-0.18097	-0.054169	-0.21286	-0.014954	-0.029755	0.15121	0.092621	0.009766	-0.00946	0.16449	0.011902	-0.083466	-0.04715	0.003204	-0.020142
20.831	0.010986	0.21439	0.017548	-0.008698	0.049896	-0.03479	0.005798	0.00473	-0.22446	-0.22949	0.005951	0.048676	0.30045	-0.065308	-0.02182	-0.1088	-0.064697	-0.19058	-0.28824	-0.069275	-0.008698	-0.025177	0.17242	0.087738	0.010223	-0.007019	0.26001	-0.001373	-0.099182	-0.015869	-0.000153	-0.011902
20.832	0.005646	0.15793	-0.031586	0.005798	0.035095	0.05188	0.011139	-0.000458	-0.15564	-0.28778	0.028992	0.052338	0.50736	-0.10254	0.021362	-0.030518	-0.031433	-0.21088	-0.2214	0.090485	0.010529	-0.011292	0.16434	0.11124	0.012817	-0.00412	0.39398	0.00061	-0.10162	-0.039215	-0.00061	-0.013428
20.833	-0.003967	0.16998	-0.007172	0.007172	0.012512	0.063782	0.026855	0.003052	-0.059052	-0.29388	0.043945	0.015869	-0.31403	-0.11169	0.032806	0.22354	0.015106	-0.17105	-0.11917	0.11505	0.010071	-0.038605	0.1918	0.058746	0.029297	-0.004883	0.35507	0.001984	-0.1442	-0.080872	-0.001831	-0.01709
20.834	0.009918	0.17563	-0.020599	0.005035	0.009003	0.043335	-0.049286	0.003052	-0.024414	-0.22614	0.007782	-0.009766	0.61676	0.10315	-0.007324	-0.002747	0.028992	-0.17853	-0.12466	0.16861	0.001831	-0.036774	0.23025	0.053406	0.024109	0.002899	-0.20401	-0.002441	0.010681	-0.11459	0.00061	-0.007935
20.835	0.017853	0.21454	-0.038452	0.001678	0.006714	-0.031586	-0.058289	0.005341	-0.040436	-0.3418	-0.061798	-0.009918	-0.12543	0.23361	-0.033569	-0.11978	-0.001831	-0.20325	-0.17685	0.093079	-0.021362	-0.057983	0.21393	0.042877	0.010071	0.006256	-0.67642	-0.003052	0.27466	-0.014801	-0.002136	0.001526
20.836	0.014648	0.18799	0.081787	-0.016785	-0.01358	-0.011444	0.048981	0.003815	-0.039673	-0.16708	-0.040741	-0.01709	-0.55512	0.10101	-0.10254	-0.043335	-0.007324	-0.20081	-0.025024	0.076904	-0.020447	-0.074158	0.23361	0.016022	0.005951	0.004578	-0.39078	-0.001373	0.30197	0.099335	-0.004883	-0.002441
20.837	0.010834	0.17364	0.057678	0.00946	-0.017853	0.044403	0.066833	0.007019	0.00946	-0.065613	-0.001678	-0.008545	-0.1004	-0.26199	-0.093231	0.016022	0.066071	-0.13351	0.14374	0.13153	-0.031738	-0.080872	0.21316	-0.020142	-0.018768	0.003967	0.19272	-0.005188	0.093079	0.14481	0.007782	-0.002136
20.838	0.022888	0.24185	-0.006714	-0.006104	0.020905	0.02182	0.096283	0.015869	0.009918	-0.07782	-0.014954	-0.019226	-0.13489	-0.30518	-0.06012	0.01709	0.094757	-0.21301	-0.090485	0.10162	-0.03952	-0.10178	0.2385	-0.00412	-0.021057	-0.002441	0.24597	-0.00351	0.005341	0.1088	-0.011597	-0.000916
20.839	0.015717	0.27817	-0.005493	-0.011902	0.029449	0.11932	0.069885	0.035706	0.12146	-0.081329	-0.014343	-0.024567	-0.27649	0.071106	0.099487	-0.011139	0.11643	-0.1741	-0.27405	0.074768	-0.039368	-0.11643	0.2153	0.033417	-0.00946	-0.001678	-0.26138	-0.007629	0.016632	0.17929	-0.002594	-0.001221
